PathFileType	4	(X/Y/Z)	C:/Users/opensim2020/Desktop/walking_exp_matlab/subject01_walking09_straight_02.trc	
DataRate	CameraRate	NumFrames	NumMarkers	Units	OrigDataRate	OrigDataStartFrame	OrigNumFrames	
100.00	100.00	8	43	mm	100.00	1981	362	
Frame#	Time	LFHD			RFHD			LBHD			RBHD			C7			T10			CLAV			STRN			RBAK			LSHO			LUPA			LELB			LFRM			LWRA			LWRB			LFIN			RSHO			RUPA			RELB			RFRM			RWRA			RWRB			RFIN			LASI			RASI			LPSI			RPSI			LTHI			LKNE			LTIB			LANK			LHEE			LTOE			RTHI			RKNE			RTIB			RANK			RHEE			RTOE			*39			*40			*41			*42			
		X1	Y1	Z1	X2	Y2	Z2	X3	Y3	Z3	X4	Y4	Z4	X5	Y5	Z5	X6	Y6	Z6	X7	Y7	Z7	X8	Y8	Z8	X9	Y9	Z9	X10	Y10	Z10	X11	Y11	Z11	X12	Y12	Z12	X13	Y13	Z13	X14	Y14	Z14	X15	Y15	Z15	X16	Y16	Z16	X17	Y17	Z17	X18	Y18	Z18	X19	Y19	Z19	X20	Y20	Z20	X21	Y21	Z21	X22	Y22	Z22	X23	Y23	Z23	X24	Y24	Z24	X25	Y25	Z25	X26	Y26	Z26	X27	Y27	Z27	X28	Y28	Z28	X29	Y29	Z29	X30	Y30	Z30	X31	Y31	Z31	X32	Y32	Z32	X33	Y33	Z33	X34	Y34	Z34	X35	Y35	Z35	X36	Y36	Z36	X37	Y37	Z37	X38	Y38	Z38	X39	Y39	Z39	X40	Y40	Z40	X41	Y41	Z41	X42	Y42	Z42	X43	Y43	Z43	

91	0.900	1465.30725	728.37750	1661.96106	1355.62256	701.09314	1671.04077	1441.28149	844.24084	1623.16589	1324.36560	819.26642	1631.91235	1391.68848	885.01782	1428.93445	1375.38794	917.39551	1134.21338	1398.14075	741.46930	1361.44080	1402.54358	696.86786	1207.67188	1305.93738	932.97693	1233.79395	1556.52966	810.95984	1390.29797	1632.73535	859.35583	1205.93420	1624.26770	890.30322	1059.58704	1649.67236	873.76501	948.00293	1635.94543	816.13586	819.94244	1655.88940	872.97455	826.20593	1666.33093	841.85620	746.82605	1244.15100	796.71100	1392.92676	1131.74609	834.78479	1191.99353	1124.68311	820.66309	1066.38977	1107.50854	752.43158	961.88489	1148.55420	640.52472	881.86304	1103.64380	675.11340	866.48541	1114.23120	612.55829	810.19086	1490.13965	739.01910	934.07880	1271.66455	737.69531	927.08807	1438.60059	925.93323	939.46942	1294.46948	922.53375	945.17084	1564.01270	698.88495	616.24713	1546.79517	668.58148	486.99368	1562.79346	660.80811	301.53531	1522.10852	601.84210	84.26945	1464.51038	629.06171	41.26915	1534.57751	451.20901	91.60064	1229.47180	839.56256	598.83069	1259.76611	863.57886	440.96286	1254.26904	950.17023	286.98291	1309.21277	1020.63959	91.96391	1356.41187	1077.23865	62.66768	1321.66614	886.83722	39.57711	1377.57312	713.56158	1704.58789	-3101.98462	1973.12537	1023.61371	-3140.65283	2012.44910	1021.98022			 
92	0.910	1466.81860	721.46252	1661.51587	1357.10327	694.22375	1670.54468	1442.76892	837.30493	1622.75806	1325.89075	812.33514	1631.50745	1393.25452	878.08215	1428.44348	1377.21912	910.31226	1133.70410	1399.59021	734.53699	1361.06873	1403.67261	689.83032	1207.21936	1307.58472	926.12469	1233.27576	1557.96558	803.90625	1389.76440	1634.27869	852.32513	1205.48352	1625.58997	883.11725	1059.04370	1650.95618	866.67157	947.46716	1637.02661	809.31439	819.26746	1657.08496	866.12231	825.61639	1667.30310	835.12225	746.04468	1245.42615	790.07275	1392.53760	1133.31067	828.42761	1191.51379	1126.24329	814.02069	1065.90454	1109.08630	745.79120	961.48425	1150.05017	634.89197	881.29645	1105.18713	668.33533	866.03894	1115.66956	605.85718	809.70825	1491.27905	731.40729	933.53644	1272.80383	731.07361	926.75427	1440.50916	918.32605	939.32037	1296.38208	915.75879	945.43060	1564.36218	691.85260	615.35095	1546.94641	661.70734	486.30228	1563.18127	653.47198	300.78873	1521.83252	594.87726	83.22684	1464.45410	622.60034	40.28322	1533.27783	444.33264	91.03864	1230.05408	834.64307	598.76941	1260.41467	859.53699	440.97202	1254.63208	947.45734	287.88190	1308.97778	1020.01740	93.33198	1356.07898	1076.79456	64.60032	1321.32336	886.64008	39.46853	1379.18335	706.57605	1704.22046	-3101.99438	1972.98547	1024.05176	-3140.62964	2012.53076	1022.05676			 
93	0.920	1468.37268	714.49658	1661.06421	1358.72168	687.18933	1670.19238	1444.38708	830.38715	1622.36475	1327.48047	805.37817	1631.13708	1394.91284	871.11761	1427.92395	1379.06519	903.16254	1133.17480	1400.85388	727.53033	1360.50024	1404.91064	682.82245	1206.72180	1309.31824	919.20593	1232.78760	1559.51990	796.72467	1389.30298	1635.78064	845.29108	1205.01392	1626.96460	875.85333	1058.52917	1652.29089	859.45374	946.92700	1638.19128	802.19141	818.67487	1658.37561	858.93286	825.07098	1668.39783	827.88416	745.38873	1246.99402	783.57532	1392.27258	1135.03394	822.00647	1191.04541	1127.90405	807.48242	1065.42236	1110.68152	739.15155	960.98712	1151.60437	628.26257	880.82892	1106.56750	661.98987	865.56274	1117.20679	599.27509	809.23395	1492.33081	723.66357	932.89380	1273.94287	724.46411	926.38147	1442.56018	910.80829	939.26501	1298.41443	908.93188	945.58856	1564.70166	684.57922	614.49005	1547.04321	654.75903	485.61044	1563.18176	646.67859	299.62451	1521.64612	589.36420	82.47511	1464.29187	617.45056	39.11403	1531.82092	438.76868	89.38544	1230.69250	829.35931	598.74573	1260.96973	855.02838	440.51108	1254.86096	944.46869	288.65466	1308.57642	1019.24127	94.80663	1355.60413	1076.28711	66.63805	1321.20776	886.63776	39.60313	1380.75928	699.61591	1703.78174	-3101.87866	1973.19824	1023.42889	-3140.72534	2012.51636	1021.99207			 
94	0.930	1470.02039	707.54474	1660.61401	1360.32861	680.27960	1669.71936	1446.06921	823.45856	1621.88989	1329.06201	798.41821	1630.70935	1396.62939	864.08295	1427.38879	1381.08203	895.90100	1132.64575	1402.40881	720.49847	1360.04724	1406.23547	675.68341	1206.30396	1311.13623	912.23926	1232.28198	1561.15991	789.45990	1388.81116	1637.35583	838.09235	1204.50500	1628.47192	868.51215	1058.02136	1653.69812	852.05579	946.34882	1639.41040	794.79340	818.10443	1659.76855	851.53705	824.56024	1669.68274	820.37225	744.86890	1248.55444	776.70239	1391.76160	1136.84192	815.61987	1190.63489	1129.70972	800.90271	1064.96277	1112.32764	732.56183	960.51025	1153.40894	622.16364	880.24353	1108.18506	655.51563	865.16199	1118.80127	592.68298	808.73022	1493.40637	715.80316	932.25488	1275.01746	717.64478	925.94000	1444.65906	903.16455	939.12628	1300.57263	902.04797	945.69104	1565.15540	677.17822	613.83685	1547.08093	647.77960	484.91238	1563.54602	640.42279	298.69415	1521.05798	584.64313	80.57369	1464.09131	613.47137	37.81846	1530.27869	434.08807	87.22912	1231.53015	823.73639	598.53790	1261.23389	850.24957	440.64542	1254.93152	941.45972	289.57590	1308.30298	1018.37921	96.40308	1355.26929	1075.68103	68.78761	1321.03772	886.49933	39.54761	1382.49744	692.67487	1703.39453	-3102.00195	1973.05554	1023.51849	-3140.68237	2012.56140	1022.06146			 
95	0.940	1471.64404	700.55682	1660.15784	1362.00903	673.28845	1669.31238	1447.66284	816.42181	1621.47021	1330.78357	791.48560	1630.25293	1398.49072	856.96924	1426.83228	1383.16077	888.59143	1132.09729	1403.96729	713.41583	1359.53113	1407.59241	668.34729	1205.82373	1313.06152	905.21649	1231.80090	1562.89856	782.09070	1388.31592	1639.06885	830.77826	1204.03174	1630.08655	861.05157	1057.48169	1655.23535	844.49103	945.82837	1640.83508	787.03778	817.63867	1660.98743	843.82813	823.93591	1671.12292	812.55670	744.35608	1250.30310	769.86316	1391.25024	1138.66650	809.17316	1190.25989	1131.44385	794.42816	1064.52234	1114.02515	726.05389	959.99774	1154.67517	615.03204	879.96729	1109.99646	648.72424	864.61475	1120.44519	586.11859	808.22064	1494.68530	707.75317	931.74347	1276.04333	710.71863	925.48157	1446.82776	895.33881	938.86285	1302.76099	895.00116	945.62964	1565.56946	669.55804	613.05695	1547.05249	640.87085	484.10681	1563.50989	634.70905	297.30948	1520.71484	581.21985	79.17966	1464.03259	610.84174	36.66209	1528.62500	430.58435	84.60310	1232.33362	818.16852	598.54517	1261.41150	844.79303	440.54037	1255.38025	938.02716	290.55627	1308.08167	1017.33411	98.04623	1355.12671	1075.10278	71.26266	1320.92236	886.37354	39.53950	1384.10815	685.72510	1702.96167	-3101.88989	1973.14453	1023.66718	-3140.73120	2012.55530	1022.01019			 
96	0.950	1473.38257	693.48883	1659.73657	1363.66785	666.36420	1668.82117	1449.42786	809.37451	1621.02380	1332.50867	784.52106	1629.82422	1400.51099	849.87152	1426.24744	1385.26917	881.18909	1131.50830	1405.65405	706.23749	1359.04126	1409.06458	661.18762	1205.35278	1315.07202	898.15625	1231.26038	1564.79346	774.62939	1387.84827	1640.88770	823.28638	1203.50720	1631.83411	853.44757	1056.91345	1656.90930	836.72638	945.28192	1642.29785	779.02301	817.20013	1662.70837	835.78442	823.40662	1672.60901	804.33472	743.85034	1252.17480	762.99432	1390.84863	1140.54626	802.63196	1189.89905	1133.23096	787.85461	1064.11914	1115.78149	719.59882	959.62946	1156.21558	608.53271	879.46771	1111.68018	642.32574	864.03589	1121.93152	579.86725	807.59131	1495.91272	699.48328	931.17450	1277.13025	703.62415	925.17633	1449.01477	887.36755	938.51965	1305.07898	887.83911	945.44781	1565.93115	661.78760	612.34546	1547.06091	634.02570	483.20486	1563.46777	629.54846	295.74127	1520.22095	578.52069	77.23927	1464.05957	609.39362	35.85727	1527.01453	428.23221	81.59246	1233.13086	812.33600	598.36865	1261.83118	839.41052	440.30981	1255.55713	934.72241	291.69254	1307.77673	1016.29980	99.72348	1354.89148	1074.30884	73.77207	1320.66394	886.07379	39.43375	1385.75806	678.73065	1702.54761	-3101.91431	1973.12683	1023.26801	-3140.69531	2012.58350	1022.13489			 
97	0.960	1475.11475	686.46448	1659.31702	1365.40588	659.34973	1668.42444	1450.97339	802.12732	1620.35107	1334.37634	777.60071	1629.31018	1402.63135	842.71094	1425.64319	1387.52380	873.61090	1130.86731	1407.58813	699.03687	1358.54468	1410.67590	653.68164	1204.91345	1317.19141	891.06262	1230.73462	1566.73914	767.04840	1387.30029	1642.65527	815.68494	1202.87756	1633.72644	845.65833	1056.33362	1658.66870	828.71808	944.64880	1643.88940	770.65350	816.74591	1664.28381	827.46423	822.79492	1674.13696	795.77216	743.31378	1254.19263	756.03265	1390.34021	1142.53967	796.00476	1189.63989	1135.10913	781.36481	1063.76880	1117.51233	713.08331	959.09143	1157.85376	602.11450	878.90265	1113.18835	636.19470	863.53461	1123.60522	573.55072	807.02448	1497.15833	690.98444	930.51154	1278.24976	696.21564	924.86707	1451.25232	879.15222	938.01904	1307.43506	880.51111	945.12213	1566.10986	654.01257	611.42352	1547.01770	627.30353	481.95929	1563.45898	624.76221	294.10767	1519.54883	576.85944	75.22430	1463.69641	608.70032	34.52655	1525.53552	426.76584	77.92954	1234.17444	806.18939	598.30054	1262.43127	834.04138	440.20935	1256.18591	931.24286	292.81784	1307.63159	1015.06476	101.60596	1354.69360	1073.46960	76.45123	1320.57837	885.91992	39.39005	1387.52429	671.79755	1702.04102	-3101.91772	1973.12195	1023.63757	-3140.65405	2012.55579	1021.97552			 
98	0.970	1476.89563	679.32886	1658.89429	1367.06812	652.48700	1667.85376	1453.08240	795.18127	1620.07336	1336.27112	770.62964	1628.68542	1404.86902	835.55731	1425.03442	1389.89929	865.95819	1130.17188	1409.42468	691.78821	1357.96045	1412.32019	646.24139	1204.46497	1319.43958	883.90350	1230.18994	1568.90564	759.36975	1386.83398	1644.73975	807.86102	1202.35449	1635.79321	837.75720	1055.71375	1660.54724	820.45752	944.01672	1645.51392	762.05682	816.30212	1665.99414	818.85986	822.14563	1675.78333	786.87860	742.81458	1256.22375	749.14941	1389.89685	1144.56860	789.24658	1189.41553	1137.09766	774.77600	1063.38892	1119.32104	706.70239	958.58752	1159.40015	595.73907	878.27716	1114.42847	630.35114	862.94519	1125.11414	567.39471	806.36090	1498.46838	682.38873	929.89185	1279.41992	688.77887	924.42914	1453.59082	870.86084	937.44110	1309.80823	872.97931	944.65283	1565.86011	646.23352	610.57959	1547.22681	620.75061	480.52454	1563.41968	620.26312	292.40558	1518.68152	575.88739	73.75834	1463.00085	608.24670	33.97286	1524.86694	425.66043	73.40408	1235.05212	800.03931	598.15869	1262.96667	828.21021	440.11185	1256.84265	927.40765	293.92078	1307.62341	1013.61414	103.68292	1354.52380	1072.49060	79.33661	1320.62073	885.76740	39.47140	1389.17163	664.82855	1701.49231	-3101.90625	1973.22046	1023.47131	-3140.72192	2012.59424	1022.10767			 
